<?xml version="1.0" encoding="UTF-8"?>
<svg id="Graphics" xmlns="http://www.w3.org/2000/svg" version="1.1" viewBox="0 0 512 512">
  <!-- Generator: Adobe Illustrator 29.1.0, SVG Export Plug-In . SVG Version: 2.1.0 Build 142)  -->
  <defs>
    <style>
      .st0 {
        fill: #231f20;
      }

      .st1 {
        fill: #4f4c4d;
      }

      .st2 {
        fill: #ff5722;
      }

      .st3 {
        fill: #00b4d8;
      }

      .st4 {
        fill: #fff;
      }

      .st5 {
        fill: #656263;
      }

      .st6 {
        fill: #66d2e8;
      }

      .st7 {
        fill: #b2e8f3;
      }
    </style>
  </defs>
  <path class="st7" d="M468.8999939,266.1000061c-9.2999878-8.2000122-20.8999939-15-34.1000061-22.1999969-62.5999756-34.2000122-118.8999939-166.4000092-206.8999939-123.9000092-39.3999939,19-59,62.1999969-89.1999969,91.6999969-35.6999969,34.9000092-118.5999985,69.9000092-120,127.8000031-.7000008,30.3999939,35.7000008,81.2999878,68.8000031,81.2999878l335.2000122.2000122c14.1000061-6.2000122,28.6000061-12.6000061,40-22.8999939,21.6000061-19.3999939,31.5-52,29.7999878-80.8000183-1.2000122-24-9.8999939-39.0999756-23.6000061-51.1999817Z"/>
  <path class="st7" d="M227.7000122,96.2000046c-3.2000122,0-5.7999878,2.5999985-5.7999878,5.8000031,0,3.1999969,2.6000061,5.8000031,5.7999878,5.8000031s5.7999878-2.5999985,5.7999878-5.8000031c.1000061-3.2000046-2.4999695-5.8000031-5.7999878-5.8000031ZM227.7000122,105.3000031c-1.7999878,0-3.2999878-1.5-3.2999878-3.3000031s1.5-3.3000031,3.2999878-3.3000031,3.2999878,1.5,3.2999878,3.3000031c.1000061,1.9000015-1.3999939,3.3000031-3.2999878,3.3000031Z"/>
  <path class="st7" d="M442.7999878,223c0,1.3000031-1.1000061,2.3999939-2.3999939,2.3999939s-2.3999939-1.1000061-2.3999939-2.3999939c0-1.3000031,1.1000061-2.3999939,2.3999939-2.3999939s2.3999939,1.0999908,2.3999939,2.3999939Z"/>
  <path class="st7" d="M152.5,131.8999939c0,1.3000031-1.1000061,2.3999939-2.3999939,2.3999939-1.3000031,0-2.3999939-1.1000061-2.3999939-2.3999939,0-1.3000031,1.1000061-2.3999939,2.3999939-2.3999939,1.3999939,0,2.3999939,1.1000061,2.3999939,2.3999939Z"/>
  <path class="st7" d="M210.2000122,108.8000031l-2.2999878-1.1999969,1.2000122-2.3000031c.2999878-.5999985.1000061-1.3000031-.5-1.6999969-.6000061-.3000031-1.2999878-.0999985-1.7000122.5l-1.2000122,2.3000031-2.2999878-1.1999969c-.6000061-.3000031-1.2999878-.0999985-1.7000122.5-.2999878.5999985-.1000061,1.3000031.5,1.6999969l2.2999878,1.1999969-1.2000122,2.3000031c-.2999878.5999985-.1000061,1.3000031.5,1.6999969.6000061.3000031,1.2999878.0999985,1.7000122-.5l1.2000122-2.3000031,2.2999878,1.1999969c.6000061.3000031,1.2999878.0999985,1.7000122-.5.3000183-.5999985,0-1.2999954-.5-1.6999969Z"/>
  <path class="st7" d="M44.7999992,201.1000061l-2.2999992-1.1999969,1.2000008-2.3000031c.2999992-.6000061.0999985-1.3000031-.5-1.6999969-.5999985-.3000031-1.2999992-.1000061-1.7000008.5l-1.2000008,2.3000031-2.2999992-1.1999969c-.5999985-.3000031-1.2999992-.1000061-1.7000008.5-.2999992.6000061-.0999985,1.3000031.5,1.6999969l2.2999992,1.1999969-1.2000008,2.3000031c-.2999992.6000061-.0999985,1.3000031.5,1.6999969.5999985.3000031,1.2999992.1000061,1.7000008-.5l1.2000008-2.3000031,2.2999992,1.1999969c.5999985.3000031,1.2999992.1000061,1.7000008-.5s.1000023-1.3000031-.5-1.6999969Z"/>
  <path class="st7" d="M31.2000008,401.5l-2.2999992-1.2000122,1.2000008-2.2999878c.2999992-.6000061.1000004-1.2999878-.5-1.7000122-.6000004-.2999878-1.2999992-.1000061-1.7000008.5l-1.2000008,2.2999878-2.2999992-1.2000122c-.6000004-.2999878-1.2999992-.1000061-1.7000008.5-.2999992.6000061-.1000004,1.2999878.5,1.7000122l2.2999992,1.2000122-1.2000008,2.2999878c-.2999992.6000061-.1000004,1.2999878.5,1.7000122.6000004.2999878,1.2999992.1000061,1.7000008-.5l1.2000008-2.2999878,2.2999992,1.2000122c.6000004.2999878,1.2999992.1000061,1.7000008-.5.2999992-.7000122.0999985-1.4000244-.5-1.7000122Z"/>
  <path class="st7" d="M479.2000122,406.2000122l-2.2999878-1.2000122,1.2000122-2.2999878c.2999878-.6000061.1000061-1.2999878-.5-1.7000122-.6000061-.2999878-1.2999878-.1000061-1.7000122.5l-1.2000122,2.2999878-2.2999878-1.2000122c-.6000061-.2999878-1.2999878-.1000061-1.7000122.5-.2999878.6000061-.1000061,1.2999878.5,1.7000122l2.2999878,1.2000122-1.2000122,2.2999878c-.2999878.6000061-.1000061,1.2999878.5,1.7000122.6000061.2999878,1.2999878.1000061,1.7000122-.5l1.2000122-2.2999878,2.2999878,1.2000122c.6000061.2999878,1.2999878.1000061,1.7000122-.5.2999878-.6000366.0999756-1.4000244-.5-1.7000122Z"/>
  <path class="st3" d="M384,266.7999878c0,1.1000061-.8999939,2-2,2s-2-.8999939-2-2,.8999939-2,2-2,2,.9000244,2,2Z"/>
  <path class="st3" d="M437,276.2000122c0,1.7000122-1.3999939,3-3,3-1.7000122,0-3-1.3999939-3-3,0-1.7000122,1.3999939-3,3-3s3,1.3999939,3,3Z"/>
  <circle class="st3" cx="402.3999939" cy="235.8000031" r="4.3999939"/>
  <path class="st0" d="M499.6000061,422H12.3999996c-.6000004,0-1-.3999939-1-1s.3999996-1,1-1h487.2999821c.6000061,0,1,.3999939,1,1s-.4999695,1-1.0999756,1Z"/>
  <path class="st1" d="M150.3000031,323.3999939h-49.6999969c-6.1999969,0-11.3000031-5-11.3000031-11.2999878v-27.5c0-6.2000122,5-11.2999878,11.3000031-11.2999878h49.6999969c6.1999969,0,11.3000031,5,11.3000031,11.2999878v27.5c-.1000061,6.2999878-5.1000061,11.2999878-11.3000031,11.2999878Z"/>
  <path class="st4" d="M112.4000015,280.5H44.0999985c-7.7000008,0-14-6.2999878-14-14v-38.8000031c0-7.6999969,6.2999992-14,14-14h68.3000031c7.6999969,0,14,6.3000031,14,14v38.8000031c0,7.7000122-6.3000031,14-14,14Z"/>
  <path class="st0" d="M112.4000015,281.5H44.0999985c-8.2999992,0-15-6.7000122-15-15v-38.8000031c0-8.3000031,6.7000008-15,15-15h68.3000031c8.3000031,0,15,6.6999969,15,15v38.8000031c0,8.2999878-6.7000046,15-15,15ZM44.0999985,214.6999969c-7.2000008,0-13,5.8000031-13,13v38.8000031c0,7.2000122,5.7999992,13,13,13h68.3000031c7.1999969,0,13-5.7999878,13-13v-38.8000031c0-7.1999969-5.8000031-13-13-13H44.0999985Z"/>
  <path class="st1" d="M134.8999939,204.3999939h-69.0999908c-7.5,0-13.5999985-6.1000061-13.5999985-13.6000061v-39.6000061c0-7.5,6.0999985-13.6000061,13.5999985-13.6000061h69.0999908c7.5,0,13.6000061,6.1000061,13.6000061,13.6000061v39.6000061c0,7.6000061-6.1000061,13.6000061-13.6000061,13.6000061Z"/>
  <path class="st3" d="M214.8999939,242.8000031h-69.1000061c-7.5,0-13.6000061-6.1000061-13.6000061-13.6000061v-39.5999908c0-7.5,6.1000061-13.6000061,13.6000061-13.6000061h69.1000061c7.5,0,13.6000061,6.1000061,13.6000061,13.6000061v39.6000061c0,7.4999847-6,13.5999908-13.6000061,13.5999908Z"/>
  <path class="st3" d="M78.8000031,230.1000061c-10.1999969,0-18.4000015,8.1999969-18.4000015,18.3999939,0,10.2000122,8.1999969,18.3999939,18.4000015,18.3999939s18.4000015-8.2000122,18.4000015-18.3999939c-.0000076-10.1000061-8.2000046-18.3999939-18.4000015-18.3999939ZM78.8000031,261.7000122c-7.3000031,0-13.1999969-5.8999939-13.1999969-13.1999969s5.9000015-13.1999969,13.1999969-13.1999969c7.3000031,0,13.1999969,5.8999939,13.1999969,13.1999969,0,7.2999878-5.9000015,13.1999969-13.1999969,13.1999969ZM77.6999969,250.6999969h0c-.9000015,0-1.5999985-.6999969-1.5999985-1.6000061v-9.6000061c0-.8999939.6999969-1.6000061,1.5999985-1.6000061h0c.9000015,0,1.5999985.6999969,1.5999985,1.6000061v9.6000061c.0000076.9000092-.6999969,1.6000061-1.5999985,1.6000061ZM86.4000015,249.1000061h0c0,.8999939-.6999969,1.6000061-1.5999985,1.6000061h-7.0999985c-.9000015,0-1.5999985-.6999969-1.5999985-1.6000061h0c0-.8999939.6999969-1.6000061,1.5999985-1.6000061h7.0999985c.8999939.1000061,1.5999985.8000031,1.5999985,1.6000061Z"/>
  <path class="st4" d="M116.9000015,303.8999939c.0999985.2999878.0999985.7000122-.1999969.8999939l-1.5,1.5c-.4000015.3999939-.4000015,1,0,1.3999939l2.5,2.5c.4000015.3999939,1,.3999939,1.4000015,0l1.5-1.5c.3000031-.2000122.5999985-.2999878,1-.2000122.1999969.1000061.4000015.2000122.5999985.2000122.3000031.1000061.5999985.3999939.5999985.7999878v2.1000061c0,.6000061.4000015,1,1,1h3.5c.5999985,0,1-.3999939,1-1v-2.2000122c0-.2999878.1999969-.6000061.5-.7999878.1999969-.1000061.3999939-.2000122.6999969-.2999878.3000031-.1000061.6999969-.1000061.8999939.2000122l1.5,1.5c.3999939.3999939,1,.3999939,1.3999939,0l2.5-2.5c.3999939-.3999939.3999939-1,0-1.3999939l-1.5-1.5c-.1999969-.2999878-.3000031-.6000061-.1999969-1,.1000061-.2000122.1999969-.3999939.1999969-.6000061.1000061-.2999878.3999939-.6000061.8000031-.6000061h2.1000061c.6000061,0,1-.3999939,1-1v-3.5c0-.6000061-.3999939-1-1-1h-2.1999969c-.3000031,0-.6000061-.2000122-.8000031-.5-.1000061-.2000122-.1999969-.3999939-.3000031-.7000122-.1000061-.2999878-.1000061-.7000122.1999969-.8999939l1.5-1.5c.3999939-.3999939.3999939-1,0-1.3999939l-2.5-2.5c-.3999939-.3999939-1-.3999939-1.3999939,0l-1.5,1.5c-.3000031.2000122-.6000061.2999878-1,.2000122-.1999969-.1000061-.3999939-.2000122-.6000061-.2999878-.3000031-.1000061-.5999985-.3999939-.5999985-.7999878v-2.1000061c0-.6000061-.4000015-1-1-1h-3.5c-.5999985,0-1,.3999939-1,1v2.2000122c0,.2999878-.1999969.6000061-.5.7999878-.1999969.1000061-.4000015.2000122-.6999969.2999878-.3000031.1000061-.6999969.1000061-.9000015-.2000122l-1.5-1.5c-.4000015-.3999939-1-.3999939-1.4000015,0l-2.5,2.5c-.4000015.3999939-.4000015,1,0,1.3999939l1.5,1.5c.3000031.2999878.3000031.6000061.1999969,1-.0999985.2000122-.1999969.3999939-.1999969.6000061-.0999985.2999878-.4000015.6000061-.8000031.6000061h-2.0999985c-.5999985,0-1,.3999939-1,1v3.5c0,.6000061.4000015,1,1,1h2.6999969c.1000137.1999817.4000092.7999878.6000137,1.2999878ZM127.1999969,304.6000061c-2.9000015,1.1000061-6.0999985-.6000061-6.5999985-3.7000122-.4000015-2.2999878.9000015-4.7000122,3.0999985-5.5,2.9000015-1.1000061,6.1000061.6000061,6.6000061,3.7000122.3999939,2.2999878-.9000092,4.6000061-3.1000061,5.5Z"/>
  <path class="st4" d="M110.1999969,163.1999969c0-6.1999969-5.3000031-11.1000061-11.5999985-10.3999939-4.5999985.5-8.4000015,4.1999969-9.0999985,8.8000031-.5,3.3999939.6999969,6.5,2.8000031,8.6999969,1.0999985,1.1999969,1.6999969,2.8000031,1.6999969,4.3999939v2.1999969h11.5999985v-2.1999969c0-1.6000061.5999985-3.1999969,1.6999969-4.3999939,1.8000031-1.6999969,2.9000015-4.3000031,2.9000015-7.1000061Z"/>
  <rect class="st4" x="93.9000015" y="179.1000061" width="11.5999985" height="2.6999969"/>
  <rect class="st4" x="93.9000015" y="183.1999969" width="11.5999985" height="2.6999969"/>
  <rect class="st4" x="98.0999985" y="186.8000031" width="3.0999985" height="2.6999969"/>
  <path class="st4" d="M183.1999969,216.3000031c0-1.1000061-.3000031-2-.8000031-2.5-.5-.6000061-1.6000061-1.1999969-3.1000061-1.8000031-3.3000031-1.1999969-5.8000031-2.3999939-7.3000031-3.8000031-1.6000061-1.3999939-2.3000031-3.3999939-2.3000031-6,0-2.3999939.8000031-4.3000031,2.3999939-5.8000031,1.6000061-1.5,3.8000031-2.3999939,6.5-2.6000061v-4.3999939h3.3000031v4.5c2.6000061.3000031,4.6000061,1.3000031,6.1000061,2.8999939,1.5,1.6000061,2.1999969,3.6999969,2.1999969,6.1999969v.1000061h-6.8999939c0-1.3999939-.3000031-2.3999939-.8999939-3.1000061-.6000061-.6999969-1.5-1-2.6000061-1s-1.8999939.3000031-2.3999939.8999939c-.5.6000061-.6999969,1.3999939-.6999969,2.3999939,0,.8999939.3000031,1.6999969.8000031,2.1999969s1.5,1.1999969,3.1000061,1.8999939c3.1999969,1,5.6000061,2.3000031,7.1999969,3.8000031,1.6000061,1.5,2.3999939,3.6000061,2.3999939,6.1999969,0,2.3999939-.8000031,4.3999939-2.3000031,5.8999939s-3.6999969,2.3000031-6.3000031,2.6000061v4.1999969h-3.3000031v-4.1999969c-2.8000031-.1999969-5.1000061-1.1000061-6.8999939-2.6999969-1.8000031-1.5-2.6999969-3.8000031-2.6000061-6.8999939v-.1000061h6.8999939c0,1.6000061.3999939,2.6999969,1.1999969,3.3999939s1.8000031,1,3.1000061,1c1.1999969,0,2-.3000031,2.5-.8999939.4000092-.6999664.7000122-1.4999695.7000122-2.3999634Z"/>
  <path class="st3" d="M420.8999939,350.7999878s-40.3999939-29.8999939-25.3999939-69.6000061c0,0,3.8999939,14.5,14.8999939,22.2999878.1000061-.0999756,21.8000183,24.5000305,10.5,47.3000183Z"/>
  <path class="st3" d="M477.6000061,358.2999878s-5.5,28.5-43.6000061,17.6000061c0,0-2-10.3999939,17.2000122-13.5,3-.5,6.1000061-.2000122,9.1000061.6000061,3.7999878.8999939,10.4999695,1.2000122,17.2999878-4.7000122Z"/>
  <path class="st3" d="M469.3999939,297.8999939s-55.5,22.2999878-42.1000061,67.3000183c0,0,10.2000122-.7000122,21.3999939-12.7000122,7.3999939-7.8999939,11.7999878-18.1000061,13.2000122-28.8999939.8000183-6.1000061,2.8000183-14.8999939,7.5-25.7000122Z"/>
  <path class="st3" d="M403.8999939,338.2999878s-11.8999939-13.7999878-32.1000061,1.7999878c0,0,24.3999939-.5,20.2999878,11.6000061,0,0-1.3999939,16.7999878,10.2000122,24.5,0,.1000061,18.9000244-24.0999756,1.6000061-37.8999939Z"/>
  <path class="st0" d="M394.7999878,407.5c-.1000061,0-.2000122,0-.2999878-.1000061-.3999939-.2000122-.7000122-.7000122-.5-1.1000061,3.6000061-9.7999878,11.2000122-17.2999878,18.5-24.6000061,5.2999878-5.2000122,10.7999878-10.7000122,14.7000122-16.8999939,2.2000122-3.5,4-7.2999878,5.7000122-11l.6000061-1.2999878c6.8999939-14.8999939,14.7999878-29.5,23.5-43.5.2999878-.3999939.7999878-.5,1.2000122-.2999878.3999939.2999878.5.7999878.2999878,1.2000122-8.6000061,13.8999939-16.5,28.5-23.3999939,43.2999878l-.6000061,1.2999878c-1.7000122,3.7999878-3.5,7.6000061-5.7999878,11.2000122-4,6.3999939-9.6000061,11.8999939-14.8999939,17.2000122-7.5,7.5-14.6000061,14.5-18.1000061,24-.2000427.3999634-.6000366.5999756-.9000549.5999756Z"/>
  <path class="st0" d="M403.2999878,408.2000122h-.2000122c-.5-.1000061-.7000122-.6000061-.6000061-1.1000061,3.1000061-11.7000122,12.7999878-26.7000122,24.5-31.3999939,4.8999939-2,10.2999878-2.5,15.6000061-3,6.7999878-.7000122,13.1000061-1.2999878,18.6000061-4.7999878.3999939-.2999878.8999939-.1000061,1.2000122.2999878.2999878.3999939.1000061.8999939-.2999878,1.2000122-5.7999878,3.6000061-12.7000122,4.2999878-19.2999878,5-5.1000061.5-10.3999939,1.1000061-15.1000061,2.8999939-11.2000122,4.5-20.5,18.8999939-23.5,30.2000122-.2000122.4999695-.5.6999817-.9000244.6999817Z"/>
  <path class="st0" d="M404,394.2999878c-.5,0-.7999878-.3999939-.8999939-.7999878-.3999939-7.2000122,2.7999878-14,5.6000061-19.2000122.7000122-1.2999878,1.5-2.6000061,2.2000122-3.7999878,2.5-4.3999939,5.1000061-8.8999939,6.5-13.7000122,2.2000122-7.5,1.5-15.8999939-1.8999939-23-2.2000122-4.6000061-5.6000061-8.7000122-8.8999939-12.6000061-1.2000122-1.5-2.5-3-3.7000122-4.6000061-5.7999878-7.3999939-8.3999939-13.7999878-8.2000122-20,0-.5.3999939-.7999878.8999939-.7999878s.7999878.3999939.7999878.8999939c-.2000122,5.7999878,2.2999878,11.7999878,7.7999878,18.8999939,1.2000122,1.5,2.3999939,3,3.7000122,4.5,3.2999878,4,6.7999878,8.1000061,9.1000061,12.8999939,3.6000061,7.3999939,4.3999939,16.2999878,2,24.2000122-1.5,5-4.1000061,9.6000061-6.7000122,14-.7000122,1.2000122-1.5,2.5-2.2000122,3.7999878-2.7000122,5-5.7999878,11.5-5.3999939,18.2000122.2000122.6000061-.0999756,1.0000305-.6999817,1.1000061.1000061,0,0,0,0,0Z"/>
  <path class="st0" d="M403.2999878,408.2000122h-.2000122c-.5-.1000061-.7000122-.6000061-.6000061-1.1000061,1.8999939-6.6000061.8999939-13.7999878,0-20.2999878l-5.1000061-36.8999939c-.2000122-1.6000061-.3999939-3.2999878-1.2000122-4.6000061-1.1000061-1.8999939-3-3-4.7000122-3.7999878-3.1000061-1.5-6.2999878-2.6000061-9.7000122-3-.5-.1000061-.7999878-.5-.7000122-1,.1000061-.5.5-.7999878,1-.7000122,3.6000061.5,7,1.6000061,10.2999878,3.2000122,1.7999878.8999939,4.1000061,2.2000122,5.3999939,4.5.8999939,1.7000122,1.2000122,3.6000061,1.3999939,5.2000122l5.1000061,36.8999939c.8999939,6.6000061,1.8999939,14-.1000061,21-.1998901.3999634-.4998779.5999756-.8999023.5999756Z"/>
  <path class="st6" d="M187.8999939,165.3000031h-16.8999939c-4.3999939,0-7.8999939-3.6000061-7.8999939-7.8999939v-16.8000031c0-4.3999939,3.6000061-7.8999939,7.8999939-7.8999939h16.8000031c4.3999939,0,7.8999939,3.6000061,7.8999939,7.8999939v16.8000031c.1000061,4.2999878-3.3999939,7.8999939-7.8000031,7.8999939Z"/>
  <path class="st4" d="M207.1999969,278.2999878l-1.1999969-17.2999878c-.1000061-1.6000061-.3000031-3.2000122-.6999969-4.7999878l-7.6000061-35.3999939c-.3999939-1.8000031-2.5-2.6999969-4.3000031-1.8999939h0c-1.1000061.5-1.6999969,1.5-1.6999969,2.6000061l1.3000031,19.3000031c.1000061,1.3000031-.6999969,2.6000061-1.8999939,3.3000031l-16.8999939,8.8000031c-3.5,1.8000031-5.6000061,5.1999969-5.6999969,8.8000031v.3999939c-.1000061,5.6000061,1.1000061,11.1000061,3.3999939,16.2999878l4.6000061,10.1000061,5.5,6.6000061,22.1000061-1.8999939,2.1999969-7.7999878h0c.7999878-2.4000549,1.0999756-4.8000488.8999786-7.1000671Z"/>
  <path class="st0" d="M181.8000031,296.1000061l-6-7.2000122-4.6000061-10.1000061c-2.3999939-5.2999878-3.6000061-10.8999939-3.5-16.7000122v-.3999939c.1000061-4,2.3999939-7.6999969,6.1999969-9.6999969l16.8999939-8.8000031c.8999939-.5,1.3999939-1.3999939,1.3999939-2.3000031l-1.3000031-19.3000031c-.1000061-1.5.8000031-3,2.1999969-3.6000061,1.1999969-.5,2.5-.5,3.6000061.1000061,1.1000061.5,1.8000031,1.5,2,2.6000061l7.6000061,35.3999939c.3999939,1.6000061.6000061,3.2999878.6999969,5l1.1999969,17.2999878c.1999969,2.5-.1000061,5-.8000031,7.3999939l-2.3999939,8.5-23.1999817,1.8000488ZM177.6000061,287.8999939l5.1000061,6.1000061,20.8000031-1.7999878,2-7.2000122c.6000061-2.2000122.8000031-4.5.6999969-6.7999878l-1.1999969-17.2999878c-.1000061-1.6000061-.3000031-3.2000122-.6999969-4.7000122l-7.6000061-35.3999939c-.1000061-.5-.5-.8999939-1-1.1999969-.6000061-.3000031-1.3000031-.3000031-1.8999939,0-.6999969.3000031-1.1000061,1-1.1000061,1.6999969l1.3000031,19.3000031c.1000061,1.6999969-.8000031,3.3999939-2.5,4.1999969l-16.8999939,8.8000031c-3.1000061,1.6000061-5.1000061,4.6999969-5.1000061,7.9000092v.3999939c-.1000061,5.5,1,10.7999878,3.3000031,15.7999878l4.7999878,10.1999817ZM204.3000031,293.2000122h0Z"/>
  <path class="st3" d="M286,275.2000122c10.1000061-1.1000061,20.2000122-1.8999939,30.2999878-2,8.3999939-.1000061,16.7999878-.2000122,25.2000122-1.5,5.7000122-.7999878,11.2999878-2.2000122,16.7000122-4,.2999878-.1000061-2.2999878-22.6000061-2.5-24.8999939-.6000061-8.1999969-1.2000122-16.3000031-2.7000122-24.3999939-1.5-8.3000031-3.8999939-16.6000061-7.8999939-24.1999969-5.3999939-10.3000031-13.6000061-20-23.1000061-26.6999969-7.5-5.1999969-16.2000122-9.1000061-25.2000122-10.6999969-13-2.1999969-26.8999939,2.3999939-36.6000061,11.3999939-5.8999939,5.5-10.1000061,12.6000061-12.6000061,20.3000031-7.6999969,23.1000061.3000031,48.1999969,2.3000031,71.6000061.5,5.5.8999939,11.2000122,3.8000031,15.7999878,2.3000031,3.7000122,8.7999878,2.1000061,12.2999878,1.6000061,6.7000427-.7000427,13.4000244-1.5000305,20.0000305-2.3000183Z"/>
  <path class="st4" d="M258.8999939,419.8999939l-36.8999939-76.1000061,5-16.7999878c8-26.7999878,32.3999939-45.5,60.2999878-46.2000122l51.2000122-1.2999878c26.6000061-.7000122,50.8999939,15.1000061,61.2000122,39.6000061l3.7000122,8.8999939-49.6000061,91.8999939h-94.9000244Z"/>
  <path class="st0" d="M354.5,420.8999939h-96.2999878l-37.2000122-77,5.1000061-17.2000122c8.1000061-27.2999878,32.7999878-46.2000122,61.2999878-46.8999939l51.2000122-1.2999878c25.8999939-.6000061,49.5,14.5,61.7999878,39.3999939l4.7000122,9.2000122-.2000122.5-50.3999939,93.2999878ZM259.5,418.8999939h93.7999878l49.5-91.6999817-4.2999878-8.2999878c-12.1000061-24.6000061-34.5-39-60-38.2999878l-51.2000122,1.2999878c-27.6000061.7000122-51.5,18.8999939-59.3999939,45.3999939l-4.8999939,16.3999939,36.5,75.1999817Z"/>
  <path class="st4" d="M278.3999939,380.2999878l-2.5-1.3999939c-2.2999878-1.2999878-2.8999939-4.2999878-1.2999878-6.3999939h0c1.3999939-1.8999939,4-2.2999878,5.8999939-.8999939l10,7s-9,.3999939-12.1000061,1.6999817Z"/>
  <path class="st0" d="M278.2999878,381.3999939l-2.8999939-1.7000122c-1.2999878-.7999878-2.2999878-2-2.6000061-3.6000061-.2999878-1.5,0-3.1000061,1-4.2999878,1.7000122-2.2999878,5-2.7999878,7.2999878-1.1000061l12.2999878,8.7000122-2.8999939.1000061c-.1000061,0-8.7999878.3999939-11.7000122,1.6000061l-.4999695.2999878ZM278,371.7999878c-1,0-2,.5-2.6000061,1.2999878s-.7999878,1.7000122-.6000061,2.7000122c.2000122.8999939.7999878,1.7000122,1.6000061,2.2000122l2.1000061,1.2000122c2.2999878-.7999878,6.2999878-1.2000122,9.1000061-1.3999939l-7.6000061-5.3999939c-.6000061-.4000244-1.2999878-.6000366-2-.6000366Z"/>
  <path class="st4" d="M174.3000031,302.2000122l23.3999939,81.7000122c6.1000061,21.2999878,25.6000061,36,47.8000031,36h13.2999878v-24.2000122l-45.5-102.1000061c-1.6000061-3.6000061-5.3000031-5.7000122-9.1999969-5.2999878l-22.3000031,2.5c-5.3999939.6999817-8.9999847,6.0999756-7.4999847,11.3999939Z"/>
  <path class="st0" d="M258.8999939,420.8999939h-13.3000031c-22.5,0-42.5999908-15.1000061-48.8000031-36.7999878l-23.3999939-81.6999817c-.8000031-2.7999878-.3000031-5.7999878,1.3000031-8.2999878,1.6000061-2.3999939,4.1999969-4,7.1999969-4.3999939l22.3000031-2.5c4.3000031-.5,8.3999939,1.8999939,10.1999969,5.7999878l28.1000061,63.2000122c.1999969.5,0,1.1000061-.5,1.2999878-.5.2000122-1.1000061,0-1.3000031-.5l-28.1999969-63.0000305c-1.3999939-3.2000122-4.6999969-5.1000061-8.1999969-4.7000122l-22.3000031,2.5c-2.3000031.2999878-4.3999939,1.5-5.6999969,3.5s-1.6999969,4.3999939-1,6.6000061l23.3999939,81.6999817c6,20.7999878,25.1999969,35.2999878,46.9000092,35.2999878h13.2999878c.6000061,0,1,.3999939,1,1,0,.6000366-.5,1.0000305-1,1.0000305Z"/>
  <path class="st1" d="M263.1000061,416.6000061l-5.8999939,4.1000061.5-7.5,31.7000122-54.7999878c.7999878-1.5,2.7000122-2,4.2000122-1.2000122h0c1.6000061.7999878,2.2000122,2.7999878,1.2999878,4.3999939l-31.8000183,55Z"/>
  <path class="st4" d="M313.6000061,386.8999939l-7.3999939-2.1000061-15-6c-2.8999939-.7000122-6-.7000122-8.7999878.2999878-15.7000122,5.3999939-17.7999878,19-17.8999939,24.7000122,0,1.3999939,1.2000122,2.6000061,2.6000061,2.5l4.2000122-.3999939,8.1000061,8.8999939c3.8999939,4.2999878,9.8999939,6,15.5,4.5l10.8999939-3.1000061,8-4.1000061-.2000427-25.1999817Z"/>
  <path class="st0" d="M290.6000061,421c-4.5,0-8.8999939-1.8999939-12.1000061-5.3999939l-7.7000122-8.6000061-3.7000122.2999878c-1,.1000061-1.8999939-.2000122-2.6000061-.8999939-.7000122-.7000122-1.1000061-1.6000061-1.1000061-2.6000061.1000061-5.8999939,2.2000122-20.1000061,18.6000061-25.7000122,3-1,6.2000122-1.1000061,9.3999939-.2999878h.1000061l15,6,8.1000061,2.2000122.2000122,26.7000122-8.7000122,4.3999939-10.8999939,3.1000061c-1.5999756.5999756-3.0999756.7999878-4.5999756.7999878ZM271.6000061,404.8999939l8.3999939,9.2999878c3.7000122,4.1000061,9.2000122,5.7000122,14.5,4.2000122l10.8999939-3,7.3999939-3.7999878-.2000122-24-6.7999878-1.8999939-15-6c-2.7999878-.7000122-5.6000061-.6000061-8.2000122.2999878-15.2000122,5.2000122-17.1000061,18.3999939-17.2999878,23.7999878,0,.3999939.1000061.7999878.3999939,1.1000061.2999878.2999878.7000122.3999939,1.1000061.3999939l4.8000183-.3999939Z"/>
  <path class="st4" d="M402.8999939,326.8999939s50.8999939,91.8000183,2.8999939,93.1000061h-80.3999939c-6.8999939,0-12.6000061-5.6000061-12.6000061-12.6000061v-16.7999878c0-6.6000061,5-12,11.6000061-12.5l29.7000122-2.2999878.1000061-26.6000061,48.6999817-22.3000183Z"/>
  <path class="st0" d="M325.2999878,420.8999939c-7.5,0-13.6000061-6.1000061-13.6000061-13.6000061v-16.7999878c0-7,5.5-13,12.5-13.5l60.5-5.6000061c.6000061-.1000061,1,.3999939,1.1000061.8999939s-.3999939,1-.8999939,1.1000061l-60.5,5.6000061c-6,.5-10.7000122,5.5-10.7000122,11.5v16.7999878c0,6.3999939,5.2000122,11.6000061,11.6000061,11.6000061h80.3999939c7.2999878-.2000122,12.5-2.8999939,15.3999939-8,14-24.1000061-23.6000061-94.3000183-24-95-.2999878-.5-.1000061-1.1000061.3999939-1.3999939s1.1000061-.1000061,1.3999939.3999939c1.6000061,2.8999939,38.5,71.8999939,23.8999939,97-3.2999878,5.7000122-9.1000061,8.7999878-17.1000061,9h-80.3999634Z"/>
  <path class="st0" d="M369.6000061,342.2000122c-10,28.6000061-32.6000061,34.6000061-32.6000061,34.6000061l38.7000122-3.7999878-6.1000061-30.8000183Z"/>
  <path class="st4" d="M313.7000122,239.5l7.1000061,35.8999939c.5,2.3999939,2.5,4.2999878,5,4.5l13.8999939-.2999878-5.7000122,6.2000122c-16.6000061,18-45.3999939,16.5-60.1000061-3h0l7.6000061-1.5c2.1000061-.2000122,3.7000122-1.5,3.7000122-3.7000122v-36.3999939l28.5-1.7000122Z"/>
  <path class="st0" d="M305.2000122,299.3999939h-2c-11.8999939-.6000061-22.8999939-6.3999939-30.1000061-15.8999939l-1-1.2999878,9.2000122-1.8999939c1.7999878-.2000122,2.8999939-1.2000122,2.8999939-2.7000122v-37.3000031l30.2999878-1.8999939,7.2999878,36.6999969c.3999939,2,2,3.5,4,3.7000122l16.2000122-.3999939-7.2999878,7.8999939c-7.6000061,8.3999939-18.3000183,13.0999756-29.5,13.0999756ZM275.7000122,283.3999939c6.7999878,8.2999878,16.7999878,13.3999939,27.6000061,13.8999939,11.2999878.6000061,22.2999878-3.8999939,29.8999939-12.2999878l4.1000061-4.5-11.6000061.2999878h-.1000061c-2.8999939-.2999878-5.2999878-2.3999939-5.7999878-5.2999878l-6.8999939-35-26.7000122,1.6000061v35.3999939c0,2.5-1.7999878,4.3999939-4.6000061,4.7000122l-5.8999939,1.1999817Z"/>
  <path class="st4" d="M314.2999878,221.5c-.3999939,5.3000031,3.5,9.8999939,8.7999878,10.3999939,5.2999878.3999939,9.8999939-3.5,10.3999939-8.8000031.3999939-5.3000031-3.5-9.8999939-8.7999878-10.3999939-5.3999939-.5-9.9999695,3.5-10.3999939,8.8000031Z"/>
  <path class="st0" d="M323.8999939,232.8999939h-.8999939c-5.7999878-.5-10.2000122-5.6000061-9.7000122-11.3999939h0c.5-5.8000031,5.6000061-10.1999969,11.3999939-9.6999969,2.7999878.1999969,5.3999939,1.5,7.2000122,3.6999969,1.7999878,2.1999969,2.7000122,4.8999939,2.5,7.6999969s-1.5,5.3999939-3.7000122,7.1999969c-1.8999939,1.6000061-4.2999878,2.5-6.7999878,2.5ZM315.2999878,221.6000061h0c-.3999939,4.6999969,3.2000122,8.8999939,7.8999939,9.3000031,2.2999878.1999969,4.5-.5,6.2999878-2s2.7999878-3.6000061,3-5.8999939c.3999939-4.6999969-3.2000122-8.8999939-7.8999939-9.3000031-4.7999878-.4000092-8.9999695,3.0999908-9.2999878,7.8999939Z"/>
  <path class="st4" d="M325.3999939,198.1999969s4.5,64.0000153-40.7000122,64.1999969c-45.1999969.2000122-20.2999878-80-20.2999878-80,0,0,34.1000061-33.1999969,61,15.8000031Z"/>
  <path class="st0" d="M284.6000061,263.3999939c-9.1000061,0-16.2000122-3.2000122-20.8999939-9.6000061-15.6999969-21.1999969-.8999939-69.6000061-.2000122-71.6999969l.1000061-.1999969.2000122-.1999969c.6000061-.6000061,14-13.5,31-11,12,1.8000031,22.6000061,10.8999939,31.5,27,.2999878.5.1000061,1.1000061-.3999939,1.3999939-.5.3000031-1.1000061.1000061-1.3999939-.3999939-8.6000061-15.6000061-18.7000122-24.3000031-30.1000061-26-15-2.1999969-27.5,8.6999969-29.1000061,10.1999969-1.1000061,3.8000031-14.5,50,0,69.6999969,4.2999878,5.8000031,10.7999878,8.8000031,19.2999878,8.8000031h.1000061c22.1000061-.1000061,31.7000122-16.3999939,35.8999939-30.1000061.2000122-.5.7000122-.8000031,1.2000122-.6999969.5.1999969.7999878.6999969.7000122,1.1999969-4.3999939,14.3000031-14.5,31.3999939-37.7999878,31.5q-.0000305.1000061-.1000366.1000061Z"/>
  <path class="st0" d="M264.6000061,215.8999939c-.2000122,1.3000031.3999939,2.3999939,1.5,2.6000061,1.1000061.1999969,2.1000061-.6999969,2.2999878-1.8999939.2000122-1.3000031-.3999939-2.3999939-1.5-2.6000061-1-.1999969-2,.6000061-2.2999878,1.8999939Z"/>
  <path class="st0" d="M292.2999878,221.3999939c-.2000122,1.3000031.3999939,2.3999939,1.5,2.6000061,1.1000061.1999969,2.1000061-.6999969,2.2999878-1.8999939.2000122-1.3000031-.3999939-2.3999939-1.5-2.6000061-1.0999756-.1999969-2.0999756.6999969-2.2999878,1.8999939Z"/>
  <path class="st2" d="M283.2000122,248c.8999939,1.6999969,3.2000122,2.3000031,5,1.3000031,1.8999939-1,2.7000122-3.1999969,1.7000122-4.8999939-.8999939-1.6999969-3.2000122-2.3000031-5-1.3000031-1.8000183,1-2.6000366,3.1999969-1.7000122,4.8999939Z"/>
  <path class="st3" d="M283,181.5c-6,12.6000061-19.1000061,21.5-33,22.5.8999939-10.6999969,5.1999969-20.8999939,11.3999939-29.6999969,3-4.1999969,6.5-8.1999969,10.8999939-10.8000031,7.2000122-4.3000031,16-4.6000061,24.2000122-3.1000061,11.7999878,2.1999969,22.7999878,8,31.2999878,16.3999939,7.2000122,7.1999969,11.6000061,15.6999969,14,25.5.3999939,1.5,1.2999878,2.8000031,1.7999878,4.1999969.5,1.6000061.3999939,3.1999969-.2000122,4.8000031-.7000122,1.8999939-1.8999939,3.6000061-4,3.8000031s-4.3999939-.3999939-6.5-.5c-2.7999878-.1000061-5.6000061-.3999939-8.2999878-1-11-2.1000061-21.2999878-7.6000061-29.5-15.3000031-4.9999695-4.6999817-9.1999817-10.3999939-12.0999756-16.7999878Z"/>
  <path class="st0" d="M326.5,245.5h-.2999878l-4.2999878-.8000031c-.5-.1000061-.8999939-.3999939-1.2000122-.8000031-.2999878-.3999939-.3999939-.8999939-.2999878-1.3999939l2.3999939-13.1999969c.1000061-.5.5-.8000031,1-.6999969s.7999878.5.7000122,1l-2.3999939,13.1999969v.1000061l.1000061.1000061,4.2999878.8000031q.1000061,0,.2000122-.1000061s.1000061-.1000061.1000061-.1999969l-1.5-8.1999969c-.1000061-.5.2000122-.8999939.7000122-1s.8999939.1999969,1,.6999969l1.5,8.1999969c.1000061.6000061-.1000061,1.3000031-.5,1.6999969-.500061.3999939-1.000061.5999908-1.500061.5999908Z"/>
  <path class="st0" d="M271.2000122,407h-.1000061c-.5-.1000061-.8999939-.6000061-.8999939-1.1000061,0-.3999939,1.2000122-9.5,8.7999878-11.2999878.5-.1000061,1.1000061.2000122,1.2000122.7000122s-.2000122,1.1000061-.7000122,1.2000122c-6.2000122,1.5-7.2999878,9.5-7.2999878,9.6000061,0,.4999695-.5.8999634-1,.8999634Z"/>
  <path class="st0" d="M276.2999878,412.2000122h-.1000061c-.5-.1000061-.8999939-.6000061-.8999939-1.1000061,0-.2999878,1-8,7.3999939-9.3999939.5-.1000061,1.1000061.2000122,1.2000122.7000122s-.2000122,1.1000061-.7000122,1.2000122c-5,1.2000122-5.7999878,7.7000122-5.7999878,7.7000122-.1999817.499939-.6000061.8999634-1.1000061.8999634Z"/>
  <path class="st0" d="M281.5,417.6000061h-.1000061c-.5-.1000061-.8999939-.6000061-.8999939-1.1000061,0-.2999878,1-8,7.3999939-9.3999939.5-.1000061,1.1000061.2000122,1.2000122.7000122s-.2000122,1.1000061-.7000122,1.2000122c-5,1.2000122-5.7999878,7.7000122-5.7999878,7.7000122-.2000122.4999695-.6000061.8999634-1.1000061.8999634Z"/>
  <path class="st0" d="M261.3999939,376.5c-.5,0-.8999939-.2999878-1-.7999878l-6.8000031-32.1000061c-.1000061-.5.1999969-1.1000061.8000031-1.2000122.5-.1000061,1.1000061.2000122,1.1999969.7999878l6.8000031,32.1000061c.1000061.5-.2000122,1.1000061-.7999878,1.2000122h-.2000122Z"/>
  <path class="st0" d="M191.1999969,269.6000061h-.5c-2.6999969-.5-3.5-5.7999878-3.6999969-7.3999939-.1000061-.5.3000031-1,.8999939-1.1000061.6000061-.1000061,1,.2999878,1.1000061.8999939.3000031,2.6000061,1.3000031,5.5,2.1000061,5.7000122.3000031.1000061,1.1999969-.5,2.5-2.7999878,4.6999969-8.3999939-2.5-20.6000061-2.5-20.6999969-.3000031-.5-.1000061-1.1000061.3000031-1.3999939.5-.3000031,1.1000061-.1000061,1.3999939.3000031.3000031.5,7.8000031,13.2000122,2.6000061,22.7000122-1.0000153,1.6999512-2.4000092,3.7999573-4.2000122,3.7999573Z"/>
  <path class="st0" d="M184.6000061,271.6000061h-.1999969c-2.5-.2000122-3.6999969-4.8999939-4.1000061-6.2999878-.1000061-.5.1999969-1.1000061.8000031-1.2000122.5-.1000061,1.1000061.2000122,1.1999969.7999878.5,2.3999939,1.6000061,4.7000122,2.3000031,4.7999878,0,0,.6999969,0,1.8000031-2.6000061,3.3999939-7.7999878-4-17.8000031-4.1000061-17.8999939-.3000031-.3999939-.1999969-1.1000061.1999969-1.3999939.3999939-.3000031,1.1000061-.1999969,1.3999939.1999969.3000031.3999939,8.1000061,11.0000153,4.3000031,19.9000092-.6999969,1.5-1.8000031,3.7000122-3.5999908,3.7000122Z"/>
  <path class="st0" d="M178,271.1000061h-.1999969c-2.1000061-.2000122-3.1000061-3.7000122-3.5-5.2999878-.1000061-.5.1999969-1.1000061.8000031-1.2000122.5-.1000061,1.1000061.2000122,1.1999969.7999878.3999939,1.8999939,1.3000031,3.6000061,1.6999969,3.7000122,0,0,.5-.2000122,1.3000031-2,2.6999969-6.2000122-3.1999969-14.1999969-3.3000031-14.3000031-.3000031-.3999939-.1999969-1.1000061.1999969-1.3999939.3999939-.3000031,1.1000061-.1999969,1.3999939.1999969.3000031.3999939,6.6000061,9,3.5,16.2999878-.5999908,1.3999939-1.5999908,3.2000122-3.0999908,3.2000122ZM178,269.1000061h0Z"/>
  <path class="st4" d="M202.1999969,253.6000061l-16.3999939,2.5c-.6999969.1000061-1.1999969.7000122-1.1000061,1.3999939h0c.5,2.7999878,3.3000031,4.7000122,6.3999939,4.2000122l5.1999969-.7999878.6000061,3.3999939c-4.3999939,5.6000061-.3000031,15.2999878-.3000031,15.2999878l7.6999969-1.6000061-2.0999908-24.3999939Z"/>
  <path class="st0" d="M195.8000031,280.8999939c-.3999939,0-.8000031-.2999878-1-.7000122l-1.8000031-6c-1-3.3999939-.1999969-7.1000061,2.3000031-9.7999878.3000031-.2999878.3999939-.7000122.3000031-1.2000122-.1000061-.7000122-.8000031-1.2000122-1.5-1.1000061l-4.3999939.6000061c-3.3999939.3999939-6.5-1.6000061-7.5-4.8999939-.1999969-.7000122-.1000061-1.3999939.3000031-1.8999939.3999939-.6000061,1-.8999939,1.6000061-1l17.8999939-2.3000031c.5-.1000061,1,.3000031,1.1000061.8999939.1000061.5-.3000031,1-.8999939,1.1000061l-17.8999939,2.3000031c-.1000061,0-.1999969.1000061-.1999969.1000061,0,0-.1000061.1000061,0,.2999878.6999969,2.2999878,2.8999939,3.7999878,5.3000031,3.5l4.3999939-.6000061c1.8000031-.2000122,3.3999939,1,3.6999969,2.7000122.1999969,1-.1000061,2.1000061-.8999939,2.8999939-1.8999939,2.1000061-2.6000061,5.1000061-1.8000031,7.7999878l1.8000031,6c.1999969.5-.1000061,1.1000061-.6999969,1.2000122.0999603.1000061-.0000458.1000061-.1000366.1000061Z"/>
  <path class="st0" d="M273.1000061,210.8999939c-.2999878,0-.6000061-.1000061-.7999878-.3000031-3.6000061-4.1999969-9.2999878-1.6999969-9.2999878-1.6000061-.5.1999969-1.1000061,0-1.2999878-.5-.2000122-.5,0-1.1000061.5-1.3000031,2.3999939-1.1000061,8-2.1000061,11.7000122,2.1999969.3999939.3999939.2999878,1.1000061-.1000061,1.3999939-.2000427.0000305-.500061.1000214-.7000427.1000214Z"/>
  <path class="st0" d="M302.2000122,215.6999969c-.2999878,0-.6000061-.1000061-.7999878-.3000031-3.6000061-4.1999969-9.2999878-1.6999969-9.2999878-1.6000061-.5.1999969-1.1000061,0-1.2999878-.5-.2000122-.5,0-1.1000061.5-1.3000031,2.3999939-1.1000061,8-2.1000061,11.7000122,2.1999969.3999939.3999939.2999878,1.1000061-.1000061,1.3999939-.3000488.0000305-.500061.1000214-.7000427.1000214Z"/>
  <path class="st0" d="M266.8999939,229.6000061c-8.2999878,0-15.1000061-6.8000031-15.1000061-15.1000061s6.7999878-15.1000061,15.1000061-15.1000061c8.2999878,0,15.1000061,6.8000031,15.1000061,15.1000061s-6.7999878,15.1000061-15.1000061,15.1000061ZM266.8999939,201.3999939c-7.2000122,0-13.1000061,5.8999939-13.1000061,13.1000061,0,7.1999969,5.8999939,13.1000061,13.1000061,13.1000061s13.1000061-5.8999939,13.1000061-13.1000061c0-7.1999969-5.8999939-13.1000061-13.1000061-13.1000061Z"/>
  <path class="st0" d="M296.2999878,234.8000031c-8.2999878,0-15.1000061-6.8000031-15.1000061-15.1000061s6.7999878-15.1000061,15.1000061-15.1000061,15.1000061,6.8000031,15.1000061,15.1000061-6.7999878,15.1000061-15.1000061,15.1000061ZM296.2999878,206.6000061c-7.2000122,0-13.1000061,5.8999939-13.1000061,13.1000061,0,7.1999969,5.8999939,13.1000061,13.1000061,13.1000061s13.1000061-5.8999939,13.1000061-13.1000061-5.8999939-13.1000061-13.1000061-13.1000061Z"/>
  <path class="st0" d="M327.3999939,214.3000031h-18.5c-.6000061,0-1-.3999939-1-1s.3999939-1,1-1h18.5c.6000061,0,1,.3999939,1,1s-.5,1-1,1Z"/>
  <path class="st0" d="M278.2999878,239.1000061c-.6000061,0-1.1000061-.1999969-1.3999939-.6999969-.3999939-.3999939-.5-1-.3999939-1.5l1.2000122-7.3999939c.1000061-.5.6000061-.8999939,1.1000061-.8000031.5.1000061.8999939.6000061.7999878,1.1000061l-1.2000122,7.3000031h6.3999939c.6000061,0,1,.3999939,1,1s-.3999939,1-1,1l-6.5-.0000153h0Z"/>
  <path class="st0" d="M281.2999878,248.3000031h-.1000061c-.6000061,0-1-.5-1-1,0-.6000061.5-1,1-1,.1000061,0,8.1000061.1000061,10-5,.2000122-.5.7999878-.8000031,1.2999878-.6000061s.7999878.8000031.6000061,1.3000031c-2.2999878,6-10.5999756,6.3000031-11.7999878,6.3000031Z"/>
  <path class="st0" d="M167.3000031,420.7000122h74.5c6.1000061,0,11.1000061-5,11.1000061-11.1000061v-.2000122h-85.5999908v11.3000183h-.0000153Z"/>
  <path class="st1" d="M77.5999985,420.7000122h126.5000076l-26.3000031-69.6000061c-2.3999939-6.2999878-8.3999939-10.5-15.1999969-10.5H60.0999985c-6.2000008,0-10.4000015,6.2000122-8.2000008,11.8999939l25.7000008,68.2000122Z"/>
  <circle class="st5" cx="126.4313404" cy="382.0562045" r="7.300298" transform="translate(-23.7468002 8.6953157) rotate(-3.6010398)"/>
  <g>
    <circle class="st3" cx="407" cy="139.5" r="65.1999969"/>
    <circle class="st4" cx="406.9999981" cy="139.5" r="56.0999956"/>
    <rect class="st0" x="406.1000061" y="90.2000027" width="1.9000015" height="11.3000011"/>
    <polygon class="st0" points="388.8000031 106.1000023 387.2000046 107.0000038 381.6000061 97.2000027 383.2000046 96.3000031 388.8000031 106.1000023"/>
    <polygon class="st0" points="374.5000038 119.7000046 373.6000023 121.3000031 363.8000031 115.6000023 364.7000046 114.0000038 374.5000038 119.7000046"/>
    <rect class="st0" x="357.5002123" y="138.6002734" width="11.3000147" height="1.9000041" transform="translate(-.2307295 .6019139) rotate(-.0949364)"/>
    <polygon class="st0" points="373.5000038 157.8000031 374.5000038 159.4000015 364.7000046 165 363.8000031 163.4000015 373.5000038 157.8000031"/>
    <polygon class="st0" points="387.2000046 172.1000061 388.8000031 173 383.1000061 182.8000031 381.5 181.8000031 387.2000046 172.1000061"/>
    <rect class="st0" x="406" y="177.7000046" width="1.9000015" height="11.3000031"/>
    <polygon class="st0" points="425.2000046 173 426.9000015 172.1000061 432.5 181.9000015 430.9000015 182.8000031 425.2000046 173"/>
    <polygon class="st0" points="439.5 159.4000015 440.4000092 157.8000031 450.1999969 163.4000015 449.3000031 165 439.5 159.4000015"/>
    <polygon class="st0" points="445.1000061 140.5 445.1000061 138.6000061 456.4000092 138.6000061 456.4000092 140.5 445.1000061 140.5"/>
    <polygon class="st0" points="440.5 121.3000031 439.6000061 119.7000046 449.4000092 114.1000023 450.3000031 115.7000046 440.5 121.3000031"/>
    <polygon class="st0" points="426.9000015 107.0000038 425.2000046 106.1000023 430.9000015 96.3000031 432.5 97.2000027 426.9000015 107.0000038"/>
    <rect class="st0" x="405.1000061" y="109.0000038" width="3.6999969" height="30.7000008"/>
    <polygon class="st0" points="407.6000061 141.2000046 406 139.3000031 434.8000031 113.1000023 436.4000015 114.9000015 407.6000061 141.2000046"/>
    <circle class="st0" cx="407" cy="139.5" r="4.5999985"/>
  </g>
</svg>